HIERARCHY
ROOT Hips
{
	OFFSET 17.103728 0.274132 4.875753
	CHANNELS 6 Xposition Yposition Zposition Zrotation Yrotation Xrotation 
	JOINT Spine
	{
		OFFSET -0.000001 8.340413 -2.713949
		CHANNELS 3 Zrotation Yrotation Xrotation
		JOINT Spine1
		{
			OFFSET 0.000000 11.909995 -2.100054
			CHANNELS 3 Zrotation Yrotation Xrotation
			JOINT Spine2
			{
				OFFSET 0.000000 12.047703 -1.054038
				CHANNELS 3 Zrotation Yrotation Xrotation
				JOINT Spine3
				{
					OFFSET 0.000000 12.093727 0.000000
					CHANNELS 3 Zrotation Yrotation Xrotation
					JOINT Neck
					{
						OFFSET 0.000000 15.549080 1.554906
						CHANNELS 3 Zrotation Yrotation Xrotation
						JOINT Neck1
						{
							OFFSET 0.000000 4.687340 0.410089
							CHANNELS 3 Zrotation Yrotation Xrotation
							JOINT Head
							{
								OFFSET 0.000000 4.633774 0.817058
								CHANNELS 3 Zrotation Yrotation Xrotation
								JOINT HeadEnd
								{
									OFFSET 0.000000 9.727722 0.000000
									CHANNELS 3 Zrotation Yrotation Xrotation
									End Site
									{
										OFFSET 0.000000 0.000000 0.000000
									}
								}
							}
						}
					}
					JOINT RightShoulder
					{
						OFFSET 0.000000 11.106487 6.072617
						CHANNELS 3 Zrotation Yrotation Xrotation
						JOINT RightArm
						{
							OFFSET -19.427898 0.000008 0.000000
							CHANNELS 3 Zrotation Yrotation Xrotation
							JOINT RightForeArm
							{
								OFFSET -29.350750 0.000008 0.000000
								CHANNELS 3 Zrotation Yrotation Xrotation
								JOINT RightHand
								{
									OFFSET -27.018089 0.000008 0.000000
									CHANNELS 3 Zrotation Yrotation Xrotation
									JOINT RightHandMiddle1
									{
										OFFSET -9.244034 0.000003 -0.000001
										CHANNELS 3 Zrotation Yrotation Xrotation
										JOINT RightHandMiddle2
										{
											OFFSET -4.870026 0.000000 -0.000001
											CHANNELS 3 Zrotation Yrotation Xrotation
											JOINT RightHandMiddle3
											{
												OFFSET -3.169075 0.000000 0.000001
												CHANNELS 3 Zrotation Yrotation Xrotation
												JOINT RightHandMiddle4
												{
													OFFSET -1.888374 0.000000 0.000000
													CHANNELS 3 Zrotation Yrotation Xrotation
													End Site
													{
														OFFSET 0.000000 0.000000 0.000000
													}
												}
											}
										}
									}
									JOINT RightHandRing
									{
										OFFSET -0.250000 -0.250000 -0.956503
										CHANNELS 3 Zrotation Yrotation Xrotation
										JOINT RightHandRing1
										{
											OFFSET -8.140220 0.000004 -0.734604
											CHANNELS 3 Zrotation Yrotation Xrotation
											JOINT RightHandRing2
											{
												OFFSET -4.501563 0.000000 -0.406237
												CHANNELS 3 Zrotation Yrotation Xrotation
												JOINT RightHandRing3
												{
													OFFSET -3.068841 0.000000 -0.276944
													CHANNELS 3 Zrotation Yrotation Xrotation
													JOINT RightHandRing4
													{
														OFFSET -1.869918 -0.000002 -0.168749
														CHANNELS 3 Zrotation Yrotation Xrotation
														End Site
														{
															OFFSET 0.000000 0.000000 0.000000
														}
													}
												}
											}
										}
										JOINT RightHandPinky
										{
											OFFSET -0.163017 -0.250001 -0.975101
											CHANNELS 3 Zrotation Yrotation Xrotation
											JOINT RightHandPinky1
											{
												OFFSET -6.681489 0.000004 -1.494111
												CHANNELS 3 Zrotation Yrotation Xrotation
												JOINT RightHandPinky2
												{
													OFFSET -3.580948 0.000000 -0.800769
													CHANNELS 3 Zrotation Yrotation Xrotation
													JOINT RightHandPinky3
													{
														OFFSET -2.276527 0.000000 -0.509077
														CHANNELS 3 Zrotation Yrotation Xrotation
														JOINT RightHandPinky4
														{
															OFFSET -1.690346 0.000000 -0.377994
															CHANNELS 3 Zrotation Yrotation Xrotation
															End Site
															{
																OFFSET 0.000000 0.000000 0.000000
															}
														}
													}
												}
											}
										}
									}
									JOINT RightHandIndex
									{
										OFFSET -0.250000 -0.250000 0.956504
										CHANNELS 3 Zrotation Yrotation Xrotation
										JOINT RightHandIndex1
										{
											OFFSET -8.934097 0.000004 0.806248
											CHANNELS 3 Zrotation Yrotation Xrotation
											JOINT RightHandIndex2
											{
												OFFSET -4.694687 0.000000 0.423666
												CHANNELS 3 Zrotation Yrotation Xrotation
												JOINT RightHandIndex3
												{
													OFFSET -2.811722 0.000000 0.253741
													CHANNELS 3 Zrotation Yrotation Xrotation
													JOINT RightHandIndex4
													{
														OFFSET -1.709945 0.000000 0.154311
														CHANNELS 3 Zrotation Yrotation Xrotation
														End Site
														{
															OFFSET 0.000000 0.000000 0.000000
														}
													}
												}
											}
										}
										JOINT RightHandThumb1
										{
											OFFSET -0.163017 -0.750000 0.975101
											CHANNELS 3 Zrotation Yrotation Xrotation
											JOINT RightHandThumb2
											{
												OFFSET -5.411659 0.835533 2.244703
												CHANNELS 3 Zrotation Yrotation Xrotation
												JOINT RightHandThumb3
												{
													OFFSET -3.567184 0.550758 1.479634
													CHANNELS 3 Zrotation Yrotation Xrotation
													JOINT RightHandThumb4
													{
														OFFSET -2.150558 0.332031 0.892029
														CHANNELS 3 Zrotation Yrotation Xrotation
														End Site
														{
															OFFSET 0.000000 0.000000 0.000000
														}
													}
												}
											}
										}
									}
								}
							}
						}
					}
					JOINT LeftShoulder
					{
						OFFSET 0.000000 11.106488 6.072617
						CHANNELS 3 Zrotation Yrotation Xrotation
						JOINT LeftArm
						{
							OFFSET 19.427898 0.000008 0.000000
							CHANNELS 3 Zrotation Yrotation Xrotation
							JOINT LeftForeArm
							{
								OFFSET 29.350750 0.000008 0.000000
								CHANNELS 3 Zrotation Yrotation Xrotation
								JOINT LeftHand
								{
									OFFSET 27.018089 0.000008 0.000000
									CHANNELS 3 Zrotation Yrotation Xrotation
									JOINT LeftHandMiddle1
									{
										OFFSET 9.402671 0.000003 0.000001
										CHANNELS 3 Zrotation Yrotation Xrotation
										JOINT LeftHandMiddle2
										{
											OFFSET 4.950096 0.000000 0.000000
											CHANNELS 3 Zrotation Yrotation Xrotation
											JOINT LeftHandMiddle3
											{
												OFFSET 3.211952 0.000000 0.000000
												CHANNELS 3 Zrotation Yrotation Xrotation
												JOINT LeftHandMiddle4
												{
													OFFSET 1.927605 0.000000 0.000000
													CHANNELS 3 Zrotation Yrotation Xrotation
													End Site
													{
														OFFSET 0.000000 0.000000 0.000000
													}
												}
											}
										}
									}
									JOINT LeftHandRing
									{
										OFFSET 0.250000 -0.250000 -0.906160
										CHANNELS 3 Zrotation Yrotation Xrotation
										JOINT LeftHandRing1
										{
											OFFSET 8.286079 0.000004 -0.747766
											CHANNELS 3 Zrotation Yrotation Xrotation
											JOINT LeftHandRing2
											{
												OFFSET 4.585473 0.000000 -0.413811
												CHANNELS 3 Zrotation Yrotation Xrotation
												JOINT LeftHandRing3
												{
													OFFSET 3.124420 0.000000 -0.281959
													CHANNELS 3 Zrotation Yrotation Xrotation
													JOINT LeftHandRing4
													{
														OFFSET 1.908767 0.000000 -0.172254
														CHANNELS 3 Zrotation Yrotation Xrotation
														End Site
														{
															OFFSET 0.000000 0.000000 0.000000
														}
													}
												}
											}
										}
										JOINT LeftHandPinky
										{
											OFFSET 0.167542 -0.250000 -0.924961
											CHANNELS 3 Zrotation Yrotation Xrotation
											JOINT LeftHandPinky1
											{
												OFFSET 6.823502 0.000005 -1.525868
												CHANNELS 3 Zrotation Yrotation Xrotation
												JOINT LeftHandPinky2
												{
													OFFSET 3.642831 0.000000 -0.814608
													CHANNELS 3 Zrotation Yrotation Xrotation
													JOINT LeftHandPinky3
													{
														OFFSET 2.333107 0.000000 -0.521728
														CHANNELS 3 Zrotation Yrotation Xrotation
														JOINT LeftHandPinky4
														{
															OFFSET 1.725463 0.000000 -0.385847
															CHANNELS 3 Zrotation Yrotation Xrotation
															End Site
															{
																OFFSET 0.000000 0.000000 0.000000
															}
														}
													}
												}
											}
										}
									}
									JOINT LeftHandIndex
									{
										OFFSET 0.250000 -0.250000 0.906160
										CHANNELS 3 Zrotation Yrotation Xrotation
										JOINT LeftHandIndex1
										{
											OFFSET 9.088006 0.000003 0.820136
											CHANNELS 3 Zrotation Yrotation Xrotation
											JOINT LeftHandIndex2
											{
												OFFSET 4.776550 0.000000 0.431054
												CHANNELS 3 Zrotation Yrotation Xrotation
												JOINT LeftHandIndex3
												{
													OFFSET 2.865135 0.000001 0.258561
													CHANNELS 3 Zrotation Yrotation Xrotation
													JOINT LeftHandIndex4
													{
														OFFSET 1.745475 0.000001 0.157519
														CHANNELS 3 Zrotation Yrotation Xrotation
														End Site
														{
															OFFSET 0.000000 0.000000 0.000000
														}
													}
												}
											}
										}
										JOINT LeftHandThumb1
										{
											OFFSET 0.167542 -0.750000 0.924962
											CHANNELS 3 Zrotation Yrotation Xrotation
											JOINT LeftHandThumb2
											{
												OFFSET 5.551452 0.857117 2.302688
												CHANNELS 3 Zrotation Yrotation Xrotation
												JOINT LeftHandThumb3
												{
													OFFSET 3.625626 0.559779 1.503871
													CHANNELS 3 Zrotation Yrotation Xrotation
													JOINT LeftHandThumb4
													{
														OFFSET 2.195244 0.338936 0.910563
														CHANNELS 3 Zrotation Yrotation Xrotation
														End Site
														{
															OFFSET 0.000000 0.000000 0.000000
														}
													}
												}
											}
										}
									}
								}
							}
						}
					}
				}
			}
		}
	}
	JOINT RightUpLeg
	{
		OFFSET -8.786538 0.000000 0.000000
		CHANNELS 3 Zrotation Yrotation Xrotation
		JOINT RightLeg
		{
			OFFSET 0.000000 -42.170410 0.000000
			CHANNELS 3 Zrotation Yrotation Xrotation
			JOINT RightFoot
			{
				OFFSET 0.000000 -45.949150 0.000000
				CHANNELS 3 Zrotation Yrotation Xrotation
				JOINT RightForeFoot
				{
					OFFSET -0.000001 -4.685799 0.000000
					CHANNELS 3 Zrotation Yrotation Xrotation
					JOINT RightToeBase
					{
						OFFSET 0.000000 0.000000 18.351074
						CHANNELS 3 Zrotation Yrotation Xrotation
						JOINT RightToeBaseEnd
						{
							OFFSET 0.000000 0.000000 6.416922
							CHANNELS 3 Zrotation Yrotation Xrotation
							End Site
							{
								OFFSET 0.000000 0.000000 0.000000
							}
						}
					}
				}
			}
		}
	}
	JOINT LeftUpLeg
	{
		OFFSET 8.786538 0.000000 0.000000
		CHANNELS 3 Zrotation Yrotation Xrotation
		JOINT LeftLeg
		{
			OFFSET 0.000000 -42.170410 0.000000
			CHANNELS 3 Zrotation Yrotation Xrotation
			JOINT LeftFoot
			{
				OFFSET -0.000001 -45.949150 0.000000
				CHANNELS 3 Zrotation Yrotation Xrotation
				JOINT LeftForeFoot
				{
					OFFSET 0.000000 -4.685799 0.000000
					CHANNELS 3 Zrotation Yrotation Xrotation
					JOINT LeftToeBase
					{
						OFFSET 0.000000 0.000001 18.351074
						CHANNELS 3 Zrotation Yrotation Xrotation
						JOINT LeftToeBaseEnd
						{
							OFFSET 0.000000 0.000000 7.522032
							CHANNELS 3 Zrotation Yrotation Xrotation
							End Site
							{
								OFFSET 0.000000 0.000000 0.000000
							}
						}
					}
				}
			}
		}
	}
}
MOTION
Frames: 4
Frame Time: 0.050000
17.103728 0.274132 4.875753 1.671072 6.579598 -7.235023 -0.317684 -0.533930 11.369375 0.546630 -0.221747 -1.110976 1.001752 -3.235976 1.054625 4.318876 -0.067914 9.302476 4.877515 1.838007 2.183784 -12.292440 7.676308 4.078560 -4.841063 1.242631 2.678470 -0.000011 0.000028 0.000000 10.243473 -11.849432 -2.146324 66.911194 -6.661095 25.167061 179.999741 78.056557 159.560394 -2.806253 -21.173294 0.007427 26.698158 -8.569587 0.000306 26.980516 0.000021 0.000049 12.178584 -0.000002 0.000015 0.000001 -0.000026 0.000004 -1.345057 -1.206136 -4.873344 26.652733 -6.464593 -2.311630 36.101700 0.980966 -3.048026 11.258528 0.092917 -1.009532 0.000001 -0.000002 -0.000015 -1.232936 -2.761420 -5.572842 12.379919 -3.497203 -2.696440 33.106865 2.084167 -7.015740 29.702579 1.613399 -6.359670 0.000006 -0.000005 0.000002 0.569044 6.516312 -0.122891 25.670195 -11.553975 2.302020 21.206188 -0.245010 1.870438 11.379004 -0.078479 1.020182 0.000010 0.000012 -0.000006 8.270632 -7.019003 53.766678 2.215340 1.129510 1.196831 1.002761 -0.480955 0.514396 0.000006 -0.000013 -0.000072 -10.339133 6.580875 -1.177573 -56.461964 -3.160308 35.666332 -179.999878 -62.956856 160.195709 0.479600 24.974167 -0.042440 -38.383381 1.741466 0.002290 -45.590996 -0.000005 0.000038 -23.294365 0.000008 0.000006 0.000004 -0.000006 0.000013 -0.424402 0.794781 -11.259916 -33.644405 3.448344 -2.854895 -50.380131 -1.862068 -3.985999 -14.031039 -0.143901 -1.253671 0.000007 0.000017 -0.000052 -0.254178 -0.012465 -5.643159 -20.145424 7.079280 -4.324410 -33.903214 -2.189180 -7.165176 -28.958300 -1.572057 -6.214732 0.000020 0.000045 -0.000000 -0.042149 -6.435988 -4.412494 -37.719387 11.864469 3.296162 -39.606686 1.168684 3.297880 -14.950061 0.185915 1.334159 -0.000002 -0.000009 0.000002 -8.817314 15.331946 61.717335 -12.877055 7.896791 3.640955 -15.519466 10.274591 3.939885 -0.000026 0.000028 0.000000 -15.191131 -4.811754 -2.257898 -0.000003 -0.000009 26.224016 -1.010490 -17.528234 -9.549978 -0.000080 -0.000006 -0.000004 -0.000014 -0.000001 15.042958 0.000048 -0.000005 0.000018 -6.565622 -0.388334 14.482828 -0.000001 0.000003 -2.045915 5.493806 25.882607 -10.286983 0.000000 -0.000006 0.000018 -0.000000 -0.000024 27.186314 0.000004 -0.000010 -0.000001 
16.863055 0.292545 4.908291 1.954913 5.822724 -6.474960 -0.585535 -0.434649 9.848359 0.492030 -0.183595 -1.290238 0.827940 -2.619655 0.880809 3.961274 0.058780 9.029055 4.886011 1.867251 2.612291 -12.256708 7.648103 4.165406 -4.845097 1.243235 2.668341 -0.000010 0.000030 0.000000 10.381280 -11.622775 -2.130982 67.016914 -5.886513 24.780607 179.999741 77.996033 160.395416 -4.180758 -20.323330 0.022365 26.273817 -8.123609 0.000827 24.012890 0.000021 0.000050 11.607639 -0.000002 0.000016 0.000001 -0.000029 0.000002 -1.114259 -1.300629 -5.809565 26.654057 -6.511828 -2.311775 34.454414 0.907555 -2.926559 10.481191 0.083176 -0.940635 0.000001 -0.000002 -0.000014 -1.258541 -2.693406 -5.505703 13.475876 -4.115606 -2.928807 32.014732 1.960575 -6.808610 27.894852 1.461214 -6.004436 0.000007 -0.000005 0.000002 0.337223 6.563815 -0.421308 24.130554 -10.735819 2.175476 18.187948 -0.207436 1.614036 10.050706 -0.067576 0.902399 0.000009 0.000012 -0.000006 8.561646 -6.398118 53.098755 1.399459 1.854208 0.950899 -0.730409 0.526357 -0.148563 0.000006 -0.000014 -0.000072 -10.737803 6.745515 -1.269642 -56.547527 -1.940946 35.110291 -179.999893 -62.914577 161.235153 -0.128314 24.874403 -0.064659 -34.169006 2.299873 0.001611 -42.575924 -0.000005 0.000033 -21.631924 0.000007 0.000008 0.000004 -0.000006 0.000006 -0.640207 1.043484 -11.553151 -30.035618 3.434636 -2.579157 -48.157150 -1.713004 -3.854815 -12.452555 -0.119257 -1.114999 0.000009 0.000017 -0.000052 -0.405716 0.130407 -5.846910 -17.898447 7.734899 -3.856261 -32.812965 -2.031998 -6.959502 -27.102947 -1.405386 -5.847190 0.000020 0.000042 0.000001 0.050297 -6.433085 -4.514317 -33.156494 11.705873 2.950637 -35.900196 0.980823 3.033176 -13.500860 0.148456 1.207317 -0.000002 -0.000009 0.000002 -9.853513 13.184967 58.640961 -10.202065 6.679159 2.825439 -12.710358 8.478594 3.254639 -0.000026 0.000029 0.000000 -14.827667 -3.498985 -0.770039 -0.000005 -0.000009 23.947884 -0.987966 -17.085205 -10.442542 -0.000081 -0.000008 -0.000004 -0.000015 -0.000001 15.236273 0.000051 -0.000006 0.000019 -6.609054 -0.352055 14.285189 -0.000001 0.000003 -2.318707 5.176191 26.771515 -10.415851 -0.000000 -0.000006 0.000024 -0.000000 -0.000025 27.186489 0.000004 -0.000008 -0.000000 
16.460444 0.311976 4.985025 2.175182 5.278266 -5.815318 -0.797469 -0.350797 8.487756 0.434662 -0.148534 -1.449548 0.664936 -2.052317 0.730085 3.626179 0.174984 8.790369 4.903323 1.865394 3.009777 -12.220469 7.584819 4.242566 -4.840167 1.239868 2.648346 -0.000010 0.000031 -0.000000 10.494841 -11.420012 -2.115328 67.095413 -5.212656 24.437658 179.999741 77.944527 161.079056 -5.441723 -19.539495 0.030952 25.906607 -7.733088 0.001207 21.187733 0.000021 0.000050 11.025528 -0.000002 0.000016 0.000001 -0.000031 0.000000 -0.909983 -1.407022 -6.656081 26.714304 -6.541412 -2.316640 32.901600 0.838078 -2.809832 9.724084 0.073904 -0.873365 0.000001 -0.000002 -0.000014 -1.290492 -2.652011 -5.429500 14.648496 -4.671044 -3.176847 31.032366 1.848882 -6.620130 26.192940 1.317592 -5.664416 0.000008 -0.000004 0.000002 0.131953 6.616925 -0.693290 22.714783 -9.995309 2.055879 15.317810 -0.172295 1.366033 8.773221 -0.057476 0.788662 0.000009 0.000012 -0.000006 8.834767 -5.780085 52.476841 0.614089 2.618020 0.728006 -2.410523 1.498832 -0.795826 0.000006 -0.000014 -0.000073 -11.094355 6.893045 -1.351920 -56.651402 -0.838285 34.660938 -179.999893 -62.889450 162.197617 -0.686522 24.769619 -0.084419 -30.181900 2.824907 0.000791 -40.202076 -0.000005 0.000028 -20.338285 0.000006 0.000010 0.000004 -0.000007 0.000001 -0.822041 1.279667 -11.850150 -26.672012 3.442705 -2.312936 -46.497375 -1.602683 -3.753076 -11.179061 -0.099862 -1.002500 0.000010 0.000017 -0.000053 -0.519845 0.298647 -5.978879 -15.825415 8.290786 -3.419912 -32.094593 -1.929612 -6.822681 -25.511684 -1.261349 -5.526961 0.000019 0.000040 0.000002 0.119477 -6.461532 -4.638761 -28.823219 11.605185 2.598376 -33.004902 0.834781 2.817525 -12.415755 0.120696 1.111831 -0.000002 -0.000009 0.000002 -10.807281 11.193210 55.905552 -7.766428 5.496958 2.079253 -10.189027 6.833756 2.624820 -0.000027 0.000030 0.000000 -14.367505 -2.423748 0.655774 -0.000007 -0.000009 21.774122 -1.070026 -16.739946 -11.219748 -0.000081 -0.000009 -0.000004 -0.000016 -0.000000 15.412741 0.000053 -0.000006 0.000019 -6.496850 -0.312734 14.034029 -0.000001 0.000003 -2.416291 4.760505 27.443361 -10.584117 0.000000 -0.000006 0.000029 -0.000000 -0.000026 27.171791 0.000005 -0.000006 -0.000000 
15.899137 0.332426 5.105608 2.331893 4.946083 -5.252154 -0.953490 -0.282379 7.290048 0.374526 -0.116563 -1.588903 0.512716 -1.534114 0.602522 3.313614 0.280683 8.586524 4.929450 1.832438 3.376199 -12.183732 7.486459 4.310045 -4.826275 1.232531 2.618485 -0.000009 0.000033 0.000000 10.584238 -11.241183 -2.099379 67.146835 -4.639838 24.136965 179.999756 77.901978 161.611084 -6.591017 -18.825657 0.034865 25.596281 -7.398298 0.001504 18.517260 0.000021 0.000051 10.432168 -0.000002 0.000016 0.000001 -0.000034 -0.000001 -0.732230 -1.525319 -7.412368 26.833475 -6.553329 -2.326216 31.445633 0.772814 -2.698504 8.987307 0.065106 -0.807755 0.000001 -0.000002 -0.000013 -1.328790 -2.637230 -5.344231 15.899390 -5.163568 -3.440479 30.160563 1.749408 -6.451200 24.599907 1.183161 -5.341549 0.000008 -0.000004 0.000002 -0.046759 6.675670 -0.938814 21.423138 -9.335980 1.944416 12.609019 -0.139929 1.128808 7.547297 -0.048193 0.679146 0.000009 0.000012 -0.000006 9.090087 -5.164992 51.900940 -0.141206 3.421094 0.528474 -4.036353 2.434491 -1.426014 0.000006 -0.000014 -0.000073 -11.408664 7.023535 -1.424401 -56.773582 0.146534 34.315754 -179.999893 -62.881477 163.082474 -1.195002 24.660398 -0.101759 -26.471624 3.310140 -0.000059 -38.468155 -0.000006 0.000024 -19.412466 0.000005 0.000011 0.000004 -0.000007 -0.000004 -0.969886 1.503321 -12.150911 -23.583876 3.475885 -2.061477 -45.392525 -1.532052 -3.683618 -10.211333 -0.085778 -0.916680 0.000011 0.000016 -0.000054 -0.596580 0.492268 -6.039115 -13.935836 8.746587 -3.018901 -31.743429 -1.881870 -6.755525 -24.188147 -1.140915 -5.257308 0.000019 0.000038 0.000002 0.165405 -6.521337 -4.785849 -24.770777 11.579714 2.250778 -30.914906 0.732582 2.657382 -11.692262 0.102628 1.047937 -0.000002 -0.000010 0.000002 -11.680935 9.365607 53.523144 -5.580768 4.362013 1.411562 -7.965661 5.361657 2.061514 -0.000027 0.000030 0.000000 -13.810276 -1.584854 2.016886 -0.000009 -0.000009 19.706795 -1.256105 -16.491968 -11.881468 -0.000082 -0.000011 -0.000004 -0.000018 -0.000000 15.572361 0.000055 -0.000006 0.000020 -6.229351 -0.270317 13.728910 -0.000001 0.000003 -2.339389 4.247113 27.898766 -10.790040 0.000000 -0.000007 0.000034 -0.000000 -0.000027 27.142208 0.000005 -0.000005 0.000000 
